<?xml version="1.0" encoding="utf-8" ?><svg xmlns="http://www.w3.org/2000/svg" xmlns:xlink="http://www.w3.org/1999/xlink" width="2451" height="2451" viewBox="0 0 2451 2451"><path fill="white" transform="matrix(2.39355 0 0 2.39355 -6.10352e-05 3.05176e-05)" d="M624.756 205.661C636.884 203.583 651.01 208.949 660.957 215.509C673.123 223.659 681.599 236.261 684.562 250.601C687.611 266.054 684.444 282.086 675.748 295.218C666.086 309.718 650.581 318.703 633.37 320.519C627.113 321.179 620.585 320.794 614.419 322.046C599.42 325.09 586.731 334.497 578.474 347.237C569.698 360.812 566.715 377.334 570.191 393.121C573.689 408.749 583.35 422.303 596.983 430.707C609.137 438.258 626.259 442.204 640.34 438.799C659.766 434.101 672.98 423.947 683.251 406.938C682.787 439.483 683.319 471.996 683.355 504.534C683.379 526.983 682.733 549.492 683.42 571.926C653.723 572.42 623.949 571.711 594.246 571.635L439.652 571.534L352.461 571.487C337.609 571.483 322.002 572.422 307.235 571.073C316.241 565.221 325.162 559.159 332.774 551.516C342.003 542.25 348.252 531.38 351.161 518.581C354.33 504.64 352.119 484.901 352.099 470.031L352.069 369.75L352.051 298.432C352.077 285.076 353.367 271.441 351.284 258.174C348.883 243.119 340.973 229.493 329.09 219.943C322.94 214.995 315.977 210.881 309.57 206.234C317.479 206.736 325.819 206.019 333.766 205.96L413.63 205.988C418.446 205.996 436.043 205.209 439.728 206.192C440.065 206.282 440.303 206.586 440.591 206.783C441.934 216.91 441.02 229.814 441.041 240.301L441.095 308.245L441.051 521.498L577.71 521.837C577.119 512.234 576.635 489.628 578.115 480.541C560.485 480.15 542.773 480.463 525.134 480.437C511.983 480.418 498.692 479.931 485.56 480.393C484.835 425.107 485.726 369.752 485.555 314.459C497.71 318.924 509.545 321.237 522.503 319.185C532.631 317.496 542.154 313.232 550.161 306.805C582.723 280.947 561.673 257.092 582.393 228.894C593.041 214.403 607.49 208.359 624.756 205.661Z"/><path fill="white" transform="matrix(2.39355 0 0 2.39355 -6.10352e-05 3.05176e-05)" d="M579.112 588.616C596.552 588.961 617.965 585.328 631.944 598.433C638.125 604.228 641.237 612.798 641.467 621.174C641.741 631.151 637.752 640.311 630.917 647.431C617.143 659.821 596.415 656.828 579.401 656.884C578.724 650.729 578.983 644.248 578.958 638.046C578.889 621.63 579.717 605.004 579.112 588.616ZM590.971 646.882C603.098 647.043 612.433 647.583 622.65 640.116C627.943 633.532 629.856 626.579 628.804 618.222C628.104 612.662 625.697 607.647 621.214 604.173C612.874 597.71 600.906 598.413 590.954 598.673C590.993 614.735 590.765 630.824 590.971 646.882Z"/><path fill="white" transform="matrix(2.39355 0 0 2.39355 -6.10352e-05 3.05176e-05)" d="M696.047 588.466C699.7 588.966 703.531 588.709 707.218 588.657C719.664 604.826 730.851 622.107 742.949 638.565L743.004 588.713C746.654 589.013 750.446 588.823 754.114 588.824C753.793 611.41 753.713 634.275 754.258 656.85C751.194 657.767 746.378 657.126 743.101 657.125C739.339 652.714 736.125 647.305 732.734 642.574C724.293 630.8 715.983 618.913 707.375 607.261C707.631 623.966 707.608 640.673 707.307 657.377C703.6 656.864 699.743 656.996 696 656.949L696.047 588.466Z"/><path fill="white" transform="matrix(2.39355 0 0 2.39355 -6.10352e-05 3.05176e-05)" d="M407.474 588.555L418.115 588.735C417.329 611.2 418.059 633.958 418.043 656.448C418.017 656.476 417.995 656.508 417.966 656.532C416.504 657.712 409.882 657.012 407.765 656.98L372.111 609.043C371.433 615.524 371.88 622.226 371.923 628.749C372.06 638.239 371.917 647.731 371.494 657.213L360.856 657.112C360.981 634.244 360.974 611.375 360.834 588.506C364.081 588.905 367.308 588.805 370.572 588.753C383.15 604.998 395.637 621.464 407.009 638.583L407.474 588.555Z"/><path fill="white" transform="matrix(2.39355 0 0 2.39355 -6.10352e-05 3.05176e-05)" d="M441.807 588.55C445.636 588.682 449.486 588.937 453.295 588.414C452.619 600.378 453.47 612.588 453.245 624.6C464.037 612.909 474.07 600.217 485.207 588.898C489.651 588.829 494.096 588.816 498.54 588.859C495.46 592.652 491.729 596.087 488.391 599.668C482.137 606.377 475.999 613.186 469.58 619.741C474.478 625.996 479.781 631.93 484.684 638.202C489.74 644.448 494.734 650.744 499.664 657.089L485.088 657.067C478.033 647.057 470.101 637.559 462.636 627.853C459.437 631.7 455.967 635.121 452.946 639.162C453.203 645.161 453.034 651.233 453.027 657.239C449.148 657.041 445.27 657.103 441.389 657.136C441.249 642.268 441.243 627.4 441.372 612.532C441.369 606.88 440.501 593.107 441.807 588.55Z"/><path fill="white" transform="matrix(2.39355 0 0 2.39355 -6.10352e-05 3.05176e-05)" d="M512.828 588.526C527.816 589.431 544.441 589.557 559.443 588.742L559.479 599.137C547.846 599.173 536.182 599.29 524.552 599.189C524.536 605.333 524.58 611.477 524.686 617.619L553.863 617.591L553.988 627.23C544.138 627.052 534.346 626.836 524.518 627.635C524.483 634.056 524.531 640.476 524.661 646.896C536.602 646.718 548.576 646.935 560.521 646.923L560.495 656.493C544.505 656.912 528.522 656.669 512.541 657.073C511.91 634.233 513.006 611.372 512.828 588.526Z"/><path fill="white" transform="matrix(2.39355 0 0 2.39355 -6.10352e-05 3.05176e-05)" d="M261.518 588.966C265.454 588.858 269.405 588.91 273.342 588.894C272.289 608.313 274.479 627.848 273.26 647.198C284.885 646.756 296.613 647.199 308.245 647.429C308.066 650.629 308.346 653.814 307.952 657.011L261.473 657.062L261.821 611.9C261.841 604.312 262.281 596.505 261.518 588.966Z"/><path fill="white" transform="matrix(2.39355 0 0 2.39355 -6.10352e-05 3.05176e-05)" d="M325.46 588.707L337.307 588.676C336.976 596.667 337.406 604.685 337.447 612.683L337.444 656.985L325.515 657.014C325.167 634.246 325.148 611.475 325.46 588.707Z"/><path fill="white" transform="matrix(2.39355 0 0 2.39355 -6.10352e-05 3.05176e-05)" d="M668.653 588.746C669.887 588.697 670.698 588.574 671.821 589.173C672.724 594.833 672.065 601.507 672.147 607.287C672.466 623.952 672.447 640.622 672.09 657.286C669.361 657.177 666.608 657.213 663.875 657.178C662.649 657.211 661.832 657.197 660.684 656.745C659.124 648.602 660.109 638.901 660.139 630.564C660.189 616.66 659.875 602.741 660.57 588.849C663.265 588.835 665.959 588.801 668.653 588.746Z"/><path fill="white" transform="matrix(2.39355 0 0 2.39355 -6.10352e-05 3.05176e-05)" d="M626.942 671.969C632.65 671.979 638.842 671.351 644.45 672.479C647.458 673.084 650.508 674.344 652.181 677.063C653.571 679.321 653.765 682.327 653.137 684.864C652.198 688.654 649.255 690.476 646.144 692.366C648.931 696.822 652.238 701.132 654.753 705.723C652.94 706.302 650.831 706.095 648.928 706.113C645.716 704.771 641.385 696.664 639.255 693.646C637.175 693.389 635.098 693.389 633.006 693.357L633.042 706.017L627.012 706.193L626.942 671.969ZM633.052 688.704C637.639 688.907 642.303 689.176 646.571 687.173C647.425 685.325 648.368 683.25 647.663 681.18C647.123 679.595 646.099 678.562 644.596 677.885C641.021 676.272 636.862 676.564 633.028 676.616C633.041 680.643 633.108 684.678 633.052 688.704Z"/><path fill="white" transform="matrix(2.39355 0 0 2.39355 -6.10352e-05 3.05176e-05)" d="M536.136 672.425L542.427 672.451C546.37 683.83 551.198 694.939 555.687 706.112L549.401 706.278C548.832 704.192 548.263 700.68 546.964 698.979C545.978 697.686 545.648 697.765 544.124 697.598C540.043 697.408 535.934 697.522 531.849 697.544C530.87 700.376 529.907 703.214 528.958 706.057L523.035 705.978C526.278 694.46 530.966 683.197 536.136 672.425ZM534.342 692.578C535.803 692.596 537.428 692.748 538.875 692.619C540.363 692.609 542.614 692.909 543.929 692.234C543.149 688.589 541.366 682.772 539.112 679.802C537.205 683.959 535.551 688.161 534.342 692.578Z"/><path fill="white" transform="matrix(2.39355 0 0 2.39355 -6.10352e-05 3.05176e-05)" d="M595.647 672.129C601.775 672.005 608.368 671.429 614.439 672.158C616.354 672.388 618.013 672.462 619.251 674.024C619.061 674.798 619.095 675.165 618.49 675.755C615.312 678.851 605.801 677.573 601.564 677.475L601.508 686.43C604.633 686.435 608.187 685.907 611.261 686.425C613.298 686.769 615.224 687.311 616.458 689.019L615.914 690.052C611.772 692.419 606.077 691.576 601.459 691.437L601.479 701.459C605.852 701.359 610.914 700.62 615.209 701.402C616.82 701.695 617.839 702.124 618.839 703.489C618.978 704.674 619.259 704.763 618.489 705.752C611.232 707.392 602.892 706.46 595.465 706.334C595.244 694.956 595.553 683.513 595.647 672.129Z"/><path fill="white" transform="matrix(2.39355 0 0 2.39355 -6.10352e-05 3.05176e-05)" d="M444.042 672.164C449.341 671.978 463.454 670.361 467.899 672.977C468.114 674.294 468.226 674.582 467.722 675.795C463.948 678.313 454.751 677.045 450.122 676.98C450.083 680.163 450.06 683.346 450.055 686.528C454.308 686.398 459.002 685.897 463.181 686.814C464.724 687.152 465.797 687.53 466.639 688.887C466.545 689.017 466.467 689.162 466.356 689.278C463.502 692.258 454.92 691.475 450.937 691.451L450.144 691.817C449.639 694.938 449.957 698.335 450.041 701.497C453.796 701.497 457.551 701.305 461.306 701.345C463.791 701.372 466.243 701.29 468.069 703.151C468.003 704.299 467.998 704.547 467.375 705.499C460.746 707.436 451.085 706.089 444.077 705.923C443.852 694.677 444.098 683.413 444.042 672.164Z"/><path fill="white" transform="matrix(2.39355 0 0 2.39355 -6.10352e-05 3.05176e-05)" d="M501.909 672.111C504.438 671.887 506.925 671.923 509.411 672.502C512.048 673.116 515.86 674.29 517.118 676.986C517.831 678.513 517.448 679.957 516.752 681.382C513.099 682.999 508.014 675.522 503.329 676.484C501.392 676.882 500.531 677.911 499.563 679.483C499.077 686.242 515.958 687.207 518.998 694.326C519.763 696.119 519.474 697.998 518.679 699.727C517.016 703.344 513.494 704.717 510.023 706.045C505.245 706.303 499.559 706.087 495.594 703.033C494.336 702.065 493.445 700.788 493.329 699.161C493.244 697.971 493.533 697.024 494.26 696.121C497.3 696.477 500.664 699.627 503.549 700.92C505.619 701.847 507.914 702.261 510.067 701.363C511.568 700.737 512.266 699.874 512.862 698.412C511.56 691.545 497.737 690.082 493.894 683.368C493.042 681.881 492.529 679.981 493.258 678.33C494.643 675.191 498.912 673.317 501.909 672.111Z"/><path fill="white" transform="matrix(2.39355 0 0 2.39355 -6.10352e-05 3.05176e-05)" d="M558.587 671.814L558.884 672.013C559.832 672.027 560.74 672.093 561.681 672.206C564.897 674.821 570.758 694.105 572.724 699.431C576.301 690.528 579.567 681.503 582.518 672.374C584.807 672.483 587.092 672.434 589.382 672.404L586.444 679.86C583.123 688.576 579.846 697.309 576.613 706.059C574.077 706.089 571.542 706.203 569.012 706.401C565.91 696.022 560.651 686.314 557.084 676.104C556.659 674.886 555.863 673.361 556.44 672.195C557.162 672.093 557.871 671.951 558.587 671.814Z"/><path fill="white" transform="matrix(2.39355 0 0 2.39355 -6.10352e-05 3.05176e-05)" d="M423.27 671.744C426.286 671.696 429.507 671.438 432.503 671.801C434.116 671.997 435.217 672.429 436.233 673.756C436.434 674.942 436.479 675.474 435.981 676.579C431.826 678.603 423.61 677.476 418.96 677.408C418.745 680.791 418.722 684.168 418.698 687.556C422.732 687.448 427.582 686.865 431.526 687.647C432.915 687.923 433.41 688.143 434.206 689.301L433.792 690.665C432.505 691.757 431.698 691.747 430.064 692.06L418.615 692.029C418.697 696.622 418.575 701.225 418.518 705.818L412.749 705.569C413.404 694.403 412.889 683.074 412.595 671.894C416.154 671.875 419.712 671.825 423.27 671.744Z"/><path fill="white" transform="matrix(2.39355 0 0 2.39355 -6.10352e-05 3.05176e-05)" d="M363.787 672.134L369.312 672.046C368.738 681.851 368.976 691.719 368.996 701.539C373.598 701.427 383.575 700.066 387.175 702.629C387.63 704.07 387.455 704.252 386.964 705.709L386.062 705.952L363.125 705.998C363.19 698.488 362.046 678.096 363.787 672.134Z"/><path fill="white" transform="matrix(2.39355 0 0 2.39355 -6.10352e-05 3.05176e-05)" d="M395.484 672.026C397.219 671.999 398.629 671.982 400.284 672.538C402.595 675.014 401.062 700.701 400.938 705.588C399.225 705.607 397.387 705.834 395.842 704.987C393.673 698.133 395.184 679.868 395.484 672.026Z"/></svg>